<?xml version="1.0" encoding="utf-8"?>
<!-- Generator: Adobe Illustrator 17.1.0, SVG Export Plug-In . SVG Version: 6.00 Build 0)  -->
<!DOCTYPE svg PUBLIC "-//W3C//DTD SVG 1.1//EN" "http://www.w3.org/Graphics/SVG/1.1/DTD/svg11.dtd">
<svg version="1.1" id="Layer_1" xmlns="http://www.w3.org/2000/svg" xmlns:xlink="http://www.w3.org/1999/xlink" x="0px" y="0px"
	 viewBox="192.4 32 733.3 900" enable-background="new 192.4 32 733.3 900" xml:space="preserve">
<g id="g3781" transform="translate(0,-9.0039062e-4)">
</g>
<path fill="#353D42" d="M665.7,760.8c-10.4-10.1-23.9-17.5-37.4-22.2C652.6,738.1,653.8,739.4,665.7,760.8z M421.5,636
	c18.5,14.1,32.5,20.8,52.8,15.6c5.6-1.5,11.6-3.8,18.5-7.1l33.1-15.2c8.7-4.5,17.3-8.1,25.6-9.8H397.2
	C405.5,623.9,413.4,630,421.5,636z M548.2,771.2c7.5,11.9,11.2,23.5,12.9,36.4l0,0l-0.6-25.6L548.2,771.2z M428.8,662.4
	c30,22,56.2,17,82.4-4.6C480.8,671.2,465.6,676.8,428.8,662.4z M369.7,660.2c16.2-2.3,3.6-19.9-1.3-6.3c-17.7,0-9.4-22.6,0.9-27.1
	C347.5,632.3,348.7,661.8,369.7,660.2z M455.9,759.4c6.5-7.9,11.9-15,18.1-20.2c-5.4-4.7-6.3-11.6-7.7-18.1
	C466.2,734.4,461.5,747.3,455.9,759.4z M614.1,657.8c26.2,21.7,52.4,26.6,82.4,4.6C659.6,676.8,644.4,671.2,614.1,657.8z
	 M820.3,499.2v58.1c0,1.5,0,2.9,0,4.4c0,146.2-117.3,265.6-261,265.6C415.2,827.4,298,707.9,298,561.7c0-1.5,0-2.9,0-4.4v-58.1
	L820.3,499.2L820.3,499.2z M770.4,621.9c-6.3-5.4-13.5-7.7-21-7.7h-0.2c-0.2,0-0.2,0-0.4,0H571.9l29.3-38.9l13.5-1.6l9.2-12.1h-12.3
	l1.4-2l12.9-0.9l7.7-10l-10.6-2.3l1.6-2.3l11.4,1.1l9.6-12.7h-17.3L623,515l-9.6,12.7l2.9,10l-1.1,1.5l-4.3-8.1l-7.5,10.2l1.3,11.9
	l-1.4,2l-2-11.2l-8.9,12.1l1.8,14.1l-28.2,37.4v-30.6l9.8-9.8v-15.4l-9.8,7.7v-2.5l9.8-8.7v-12.8l-9.8,5v-3.1l9.8-6v-16.1L562,525.8
	l-14.3-10.6v16.1l8.1,6v2l-8.1-4v12.7l8.1,8.7v2.5l-8.1-7.7v15.4l9.8,10v31.2l-29-38.3l1.8-14.1l-9.2-12.1l-2,11.2l-1.5-2l1.5-11.9
	l-7.8-10.2l-4.2,8.1l-1.3-1.5l2.9-10l-9.6-12.7l-5.4,17.5h-17.3l9.6,12.7l11.4-1.1l1.8,2.3l-10.6,2.3l7.4,10l12.9,0.9l1.5,2h-12.3
	l9.2,12.1l13.7,1.6l29.3,38.9H376.4c-7.7-0.2-15.4,2-21.9,7.7c-28.5,28.2,12.7,63.6,29.5,34.3c4.5-12.7-7.7-18.8-19.1-15
	c-1.1-11,16.2-13.9,24.4-8.3l16.4,16.1l15.2,14.3c20.6,16.2,37.2,22.2,53.5,19.7c13.8-2,27.5-10.1,43.2-23.1
	c7-6.5,13.3-11.4,19.5-14.6l-62.6,83.5l-0.2-0.4l-5.4-16.4l-4.3-0.6c-0.4,20.6-5.6,38.1-15,55.7l2,1.6c7.2-7.1,14.8-12.5,22.6-17
	c8.1-4.7,16.8-8.7,26.4-12.3l-1.7-4l-17.7-1.1l70.1-92.9c1.8-0.2,3.8-0.2,5.8-0.2v130.5l-14.6-10l-3.8,2
	c11.9,16.8,18.3,33.9,21.2,53.7h2.5c3.3-20.4,10.8-36.4,21.5-53.7l-3.6-2l-14.8,10.2V641.2c1.6-0.2,3.3-0.2,5-0.2l70.3,93.2
	l-17.9,1.1l-1.4,4c10.8,4.2,20.8,8.7,30.2,14.6c6.5,4.2,12.7,8.9,18.8,14.8l2-1.6c-9.4-17.7-14.3-35.2-15-55.7l-4.2,0.6l-1.6,4.7
	l-4,12.1l-64-84.9c7.4,3.1,14.8,8.3,23.3,16.3c16.4,13.5,30.3,21.7,44.7,23.3c15.7,1.8,32-4.2,52-19.9l15.2-14.3l17.3-15.6
	c7.5-6.5,24.6-5,23.5,7.9c-12.3-4.3-25,4.5-19.3,16.3C757.4,686.6,798.8,650.2,770.4,621.9z M754.5,626.9
	c10.2,4.3,18.5,27.1,1.1,27.1c-6-12.9-17.7,4-1.5,6.3C775.1,661.8,776.3,632.3,754.5,626.9z M601.4,629.3l30.6,15.2
	c7.4,3.6,13.9,6,19.9,7.4c19.5,4.5,33.3-2,51.3-16.1c8.1-6,16.1-12.1,24.4-16.4H576.3C584.4,621.3,592.7,624.6,601.4,629.3z
	 M520.1,837.5c-5.8-3.8-12.7-6.5-20.4-8.9c-0.4-0.2-0.6-0.4-1.1-0.4c0.4,0.2,0.6,0.4,1.1,0.9c11.6,8.3,17.3,16.4,20.4,25.1
	c1.8,5,2.7,10.4,3.6,16.1l12.7-1.3l3.1-0.4c-0.9-4.2-1.8-7.9-3.1-11.2C532.6,848.2,527.1,842.2,520.1,837.5z M520.1,139.1
	c2-0.9,4.4-1.5,6.7-2c-0.6-12.7-2-27.5-6.7-42.4c-3.3-10.6-8.1-21.5-15-31.8c-1.8,0.6-3.6,1.3-5.4,1.8c-8.5,2.9-16.8,6.5-25,10.6
	c-0.6,0.2-1.2,0.6-1.8,1.1c0.6,0.6,1.3,1.3,1.8,1.8c9.2,9.8,17.9,22.4,25,34.9c5.8,10.1,10.4,20.2,13.5,28.5
	C515.5,140.8,517.9,139.9,520.1,139.1L520.1,139.1z M372,171.5c1.5,0.9,3.1,1.6,4.5,2.5c16.3,8.7,36.9,11.4,57,7.9
	c12.5-2,24.8-6.7,36-13.7c1.8-1.1,3.6-2.3,5.2-3.6c0.6-0.4,1.3-0.9,2-1.5l-0.6-0.2c-0.4-1.3-0.9-2.5-1.5-3.8
	c-1.4-4-2.9-8.3-5.2-13.3c-5.6-12.9-15.2-28.7-35.2-43.5v0.2c-0.2,0.2-0.6,0.4-0.9,0.6c-6.3,5.6-16.3,16.6-21.2,22.6
	c7.4,3.6,14.6,7.4,21.2,12.1c9.6,6.7,18.1,15,24.9,26c-7.2,4.7-16,7.7-24.9,8.7c-14.8,1.6-30.2-2.3-41.4-11.9
	c-4.5-4-4-10.4,1.1-13.5c-6.9,0-12.5,0.6-16.6,1.8C362.3,153.4,362.1,163.9,372,171.5z M248.1,438.8c7.9-6,13.6-16.1,16.3-28.7h0.2
	c4.2-18.8,6.5-35.8,7.5-52.6c1.4-19.3,1.1-38.1,0-58c-3.1-39.5-6.7-54.7-20.6-76.6c-1-1.5-2-2.9-3.3-4
	c-16.1-15.4-53.5-8.5-55.7,19.3c-0.6,20.4,12.9,34.7,32.5,30.9c19.3-2.7,21.5-25.8,8.1-35.6c-9.6-7.3-29.1,0.4-19.1,13.3
	c5.2,6.3,12.1,0.9,14.1-0.9l1.3,4c-5,5.6-14.3,7.3-21-2c-10.8-18.8,19-34.3,34.5-12.5c2,2.7,3.8,5.4,5.4,8.3
	c11.6,20.6,15,45.4,14.8,77.2h-1.6c-1.5-8.5-0.6-17.5-4.9-27.9c-2-5-5-7.7-8.3-8.9c-9.2-3.3-20.6,5.8-19.5,15.2
	c8.1-1.1,14.8,4.4,19.5,13.5c12.3,22.9,14.1,68.9,5,96.1c-1.3,4.2-2.9,7.9-5,10.8c-3.1,4.7-6.9,8.1-11,9.6
	c-9.4,1.8-16.3,0.4-20.6-3.3c-9.6-8.1-6.7-22.2,2-26.8c6.7-3.3,19.2,0.2,17.9,8.7l-1.8,2.7c-4.5-11.6-14.3-8.3-17.3-1.5
	c-2.5,6.5-0.2,16.2,16.1,14.3c15.6-3.6,14.6-23.3,8.1-28.9c-33.3-28.9-70.1,30.9-21.5,49.3C231.4,446.5,240.8,444.4,248.1,438.8z
	 M474.7,85.8c-1.6-2-3.3-4.2-5.2-6c-0.4-0.4-0.9-0.9-1.3-1.2c-0.6,0.4-1.1,0.6-1.7,1.1c-9.8,5.6-19.1,12.1-27.8,19.3
	c-0.2,0-0.4,0.2-0.6,0.4c13.3,9.2,23.3,19,31.4,28c1.8,2.3,3.6,4.3,5.2,6.5c6,7.3,10.8,14.3,14.8,20.2c3.3-2,6.9-4.2,10.2-6
	c0.4-0.2,0.9-0.4,1.2-0.6c-0.4-1.5-0.9-3.1-1.2-5C495.8,126.2,488.1,103.3,474.7,85.8z M323.6,168.4c4.2,4,8.5,7.7,13,11.2
	c12.3,9.4,25.6,16.1,39.9,20.2c9.8,2.7,19.9,4.2,30.8,4.7c8.7,0.6,17.7,0.2,26.2-1.1c3.6-0.5,7-1.3,10.6-2c24.4-5,49.2-12.1,73.6,5
	l-0.4-2.7c-4.7-12.5-19-17.5-30.8-16c-5.2,0.6-15.1,4.4-20.4,6.3c1.1-0.4,2.2-1,3.3-1.5c1.6-0.6,3.6-1.4,5.2-2.5
	c1.1-0.4,2-1.1,3.3-1.6c8.9-4.7,15.2-8.5,21.7-13.2c2.5-1.6,5-3.3,7.7-5.4c0,0,0.4-0.2,1-0.6c3.3-2.9,7.8-6.3,11.6-7.3
	c2.9-0.6,5.6-0.2,7.9,2.5l-1.2,1.4c-1.7-2-4-2.3-6.5-1.6c-2.9,0.9-6.3,3.1-8.9,5.4c-1.1,3.3,0.6,7.9,4.4,10.4
	c1.5,0.6,2.9,0.9,4.5,0.9c6.7-0.4,13.9-6.5,16.3-13.9c1.1-2.9,1.1-6.3,0-9.4v-0.2c-3.3-7.2-8.7-10.6-16.3-9.4
	c-4,0.9-8.3,2.5-13.3,5.6c-2.5,1.6-4.7,3.1-7,4.7c-8.3,5.6-16.6,11-25,15.6c-1.6,1.1-3.6,1.8-5.2,2.9c-3.6,1.6-7.1,3.3-10.7,4.7
	c-8.5,3.3-17,5.8-25.3,7.3c-19.5,3.6-38.5,1.6-57-7.3c-13.7-6.5-27.1-16.8-39.9-31.6c-0.4-0.4-0.9-0.9-1.2-1.3
	c-4-4.5-9.4-9.6-7.5-16.8c0.6-2.7,2.5-4.5,4.7-5.8c1.1-0.6,2.5-1.1,4-1.3c1.1-0.2,2-0.2,3.3,0c4,0.6,7.9,3.1,9.2,8.1l-2.9,0.6
	c-1-3.6-3.8-5.2-6.7-5.6c-1.1-0.2-2-0.2-2.9,0c-1.1,0.2-1.8,0.4-2.7,0.9c-1.5,0.9-2.7,2-3.1,3.8c-0.6,2.5,0.2,5.8,3.6,10.1
	c0,0,0,0,0-0.2c0.6,0.9,1.5,1.4,2.3,1.8c4.3,2.5,9.8,1.3,14.1-3.8c5.8-7.9,0.9-20.4-14.1-22.6c-1.8-0.2-4-0.4-6-0.4
	c-2.5,0.2-5,0.9-7,1.6c-16.3,5.6-21.2,25.1-3.8,45.4C321.1,165.7,322.3,167.2,323.6,168.4L323.6,168.4z M540.5,133.7
	c3.6-0.4,7.1-0.9,10.6-1.3c0.2,0,0.6,0,1.1,0c2.9-21.9,4-46.6,4.2-78c0,0,0,0-0.2,0c-1.7,0-3.3,0.2-5,0.2c-5,0.2-10,0.6-14.8,1.3
	c-5.4,0.9-10.8,1.6-16.3,2.9c-3.6,0.9-6.9,1.6-10.2,2.5l-0.2,0.2c3.8,5.6,7.3,11.2,10.4,16.8c7.1,13.2,12.5,26,16.3,38.5
	C538.2,122.7,539.4,128.3,540.5,133.7L540.5,133.7z M285.7,518.5c2.3-4.7,3.8-10.8,4.5-18.1L290,208h98c-3.8-1.1-7.5-2-11.4-3.6
	c-13.3-4.4-27.7-11.2-39.9-19.7c-4.7-3.3-9.2-6.9-13-10.6c-9.8-9.2-16.8-19.7-18.8-31.4c-2.3,5.4-6.9,13.4-10.8,18.3
	c6.3,13.3,16.1,23.9,29.5,31.2c1.6,0.9,3.6,1.6,5.2,2.5l-1.8,2.7c-1.3-0.6-2.3-1.3-3.3-1.6c-15.4-8.1-23.5-16.2-31.8-30.8
	c-1.6,2.3-3.8,4.5-6,6.9c-0.9,1.1-1.8,2-2.9,3.3c0.6,1.8,1.7,3.8,2.9,5.6c6.3,8.7,18.1,17,20.6,17.5l-2.3,2.5
	c-7.7-4-13.7-9.4-18.3-14.6c-2.3-2.9-4.2-5.6-5.6-8.1c-3.1,3.3-7.8,7.9-10.8,10.8c4.5,1.6,11,8.3,11.9,11.6l-2.7,2
	c-2-4.7-6.7-9.4-12.1-11.2l-10.1,7.4c6.3,2,9.8,7.9,12.3,12.5l-3.3,2.7c-1.5-5.4-7.5-11-13-12.5l-4,2.3l-6,4c2,1.2,4.2,2.7,6,4.5
	c11.2,10,19,26.6,23.3,45.9c7.7,33.5,7.2,74.3,5.4,99.4c-1.1,13.7-2.7,35.6-7.2,54.2c-4.2,13.9-10.8,26.4-21.5,33.1
	c-6.7,4.4-14.8,6.5-24.8,5c6.5,7.9,10,13.9,21.5,12.3c1.2-0.2,2.3-0.4,3.3-0.9c22.4-6.3,28.5-26.4,32.7-45.7l1.8,6.7
	c-4.7,25.6-18.5,39.6-34.5,43.7c-2.7,0.6-5.4,1.1-8.1,1.1l6.5,11c0.6,0.2,1.1,0.4,1.7,0.6c11.2,2.7,33.5-11,32.2-25.8l2.3,5.8
	c0.9,12.1-23.3,26.6-33.6,23.7l3.8,13.7c4.7,5.4,26,0.4,28.7-11.2l3.1,2.3c-3.6,10.6-24.8,20.8-33.1,11.9c-1.2,0.9-2.3,1.6-3.3,2.5
	c-8.9,8.1-7.2,19.7,0,26.8c2.9,2.7,6.9,4.7,11.2,5.6C271.7,535.3,280.6,530.1,285.7,518.5L285.7,518.5z M401.1,142.4l9.8,21.9
	c4.3,3.6,12.5,4.7,22.6,4c5.2-0.6,10.6-1.4,16.6-3.1c-6.7-2.9-12.1-5.6-16.6-8.7c-9.4-6.3-16.1-13.5-24.4-26.6l-3.3-6.3
	c8.1-10.6,17.5-20.4,27.7-28.9c11-9.4,23.3-17.5,36-24.2c1.6-0.9,3.6-1.6,5.2-2.5c0.9-0.4,1.7-0.9,2.3-1.3c7.4-3.3,15-6.5,22.6-8.9
	c3.1-1.1,6.3-1.8,9.4-2.7c3.6-1.1,7.3-1.8,11-2.7c5.4-1.3,10.8-2,16.3-2.7c4.7-0.6,9.8-1.1,14.8-1.3c2.7-0.2,5.4-0.2,8.1-0.2
	c2.5,0,5.2,0,7.9,0.2c5,0.2,10,0.6,14.8,1.3c5.4,0.6,11.1,1.5,16.3,2.7c3.8,0.9,7.5,1.6,11,2.7c3.1,0.9,6.3,1.6,9.4,2.7
	c7.7,2.5,15.4,5.6,22.6,8.9c0.9,0.4,1.4,0.9,2.3,1.3c1.7,0.9,3.6,1.6,5.2,2.5c12.9,6.7,25,14.8,36,24.2
	c10.2,8.5,19.5,18.3,27.7,28.9l-3.3,6.3c-8.3,13.2-15,20.4-24.4,26.6c-4.5,3.1-10,5.8-16.4,8.7c5.8,1.6,11.4,2.7,16.4,3.1
	c10.2,0.9,18.3-0.4,22.6-4l9.7-21.9l3.6-8.1l7-15.6c0,0,0,0,0.2,0c-10.8-19.3-25.8-35.6-43.2-48.4c-11-8.1-23.1-15-36-20.6
	c-1.6-0.9-3.6-1.4-5.2-2.3c-8.1-3.1-16.4-5.8-24.9-8.1c-6.7-1.6-13.5-3.1-20.4-4.2c-5.2-1.1-10.8-1.6-16.3-2
	c-4.7-0.4-9.7-0.9-14.8-0.9c-2.7-0.2-5.4-0.2-7.9-0.2c-2.7,0-5.4,0-8.1,0.2c-5,0-10,0.4-14.8,0.9c-5.4,0.4-10.8,1.1-16.3,2
	c-6.9,1.1-13.7,2.5-20.4,4.2c-8.5,2.3-16.8,5-25,8.1c-1.6,0.9-3.6,1.4-5.2,2.3c-12.9,5.6-25,12.5-36,20.6
	c-17.5,12.9-32.2,29.1-43,48.4l7.1,15.6L401.1,142.4L401.1,142.4z M618.5,64.6c-1.8-0.6-3.6-1.3-5.4-1.8
	c-6.9,10.4-11.6,21.2-15,31.8c-4.3,15-6,29.8-6.5,42.4c2,0.6,4.3,1.3,6.5,2c2.5,0.9,4.9,1.6,6.9,2.5c3.1-8.3,7.9-18.3,13.5-28.5
	c7.1-12.5,15.9-25.1,24.9-34.9c0.6-0.6,1.3-1.3,2-1.8c-0.9-0.4-1.5-0.9-2-1.1C635.4,71,627,67.6,618.5,64.6z M618.5,142.4
	c-0.4,1.8-0.9,3.6-1.2,5c0.4,0.2,0.9,0.4,1.2,0.6c3.3,1.8,6.9,4,10.2,6c4.2-5.8,8.7-12.9,14.8-20.2c1.7-2,3.3-4.2,5.2-6.5
	c8.1-9.2,18.1-19,31.4-28c-0.2-0.2-0.4-0.4-0.4-0.4c-8.7-7.2-18.3-13.7-28-19.3c-0.4-0.4-1.1-0.6-1.5-1.1c-0.2,0-0.2,0-0.2,0
	c-0.4,0.4-0.9,0.9-1.3,1.2c-1.8,1.8-3.6,4-5.2,6C630.1,103.3,622.4,126,618.5,142.4L618.5,142.4z M726.1,161
	c-11.2,9.6-26.6,13.5-41.4,11.9c-8.9-1.1-17.5-4-25-8.7c6.9-11,15.4-19.3,25-26c6.7-4.5,13.9-8.5,21.2-12.1c-5-6-15-17-21.2-22.6
	c-0.2-0.2-0.4-0.4-0.6-0.6c-0.2,0-0.2-0.2-0.2-0.2c-19.9,14.8-29.5,30.5-35.2,43.5c-2,5-3.8,9.4-5.2,13.3c-0.4,1.3-1,2.5-1.4,3.8
	l-0.4,0.2c0.6,0.6,1.2,1.1,1.8,1.5c1.7,1.3,3.6,2.5,5.2,3.6c11.2,7.1,23.5,11.6,36,13.7c20.2,3.6,40.8,0.9,56.9-7.9
	c1.7-0.9,3.1-1.6,4.5-2.5c10.2-7.7,9.8-18.1-4.5-22.2c-4.1-1.3-9.8-1.8-16.4-1.8C730.2,150.5,730.8,157,726.1,161z M781.8,144.2
	c0.6-0.4,1.5-1.1,2.3-1.8c0,0.2,0,0.2,0,0.2c3.1-4.3,4-7.7,3.3-10.1c-0.4-1.6-1.6-2.9-3.1-3.8c-0.9-0.4-1.7-0.6-2.5-0.9
	c-1-0.2-2-0.2-3.1,0c-2.9,0.4-5.6,2-6.5,5.6l-3.1-0.6c1.3-5,5.2-7.4,9.2-8.1c1.3-0.2,2.3-0.2,3.6,0c1.3,0.2,2.7,0.6,4,1.3
	c2,1.2,4,3.1,4.5,5.8c1.8,7.3,0,12.1-4.1,16.4c-1.5,1.6-2.9,3.1-4.4,4.5c-13.5,13.3-26.6,22.9-40.1,29.1
	c-18.5,8.5-37.2,10.4-56.9,6.5c-11-2.3-22.3-6.5-33.9-12.5c-0.6-0.2-1.5-0.4-2-0.9c-1.6-0.6-3.6-1.5-5.2-2.3
	c-5.6-2.5-11-5.4-17.3-8.9c-2-1.3-4.7-3.1-7.7-5.2c-6.3-4.2-13.5-9.4-20.4-10.6c-6.3-1.4-12.1,0.4-16.3,8.9c0,0.2-0.2,0.4-0.2,0.6
	c-1.5,3.8-1.1,7.4,0.2,11c2.7,6.7,9.8,12.1,16.3,12.3c1.8,0.2,3.8,0,5.4-0.9c3.8-2.5,4-5.8,3.1-9.2c-2.7-2-5.6-4.2-8.5-5.2
	c-2.5-0.9-5-0.9-6.9,1.5l-1.5-1.5c2.3-2.7,5.4-3.1,8.3-2c4,1.1,7.9,4.2,11.2,7.1c0.6,0.2,1.1,0.6,1.1,0.6c2.9,2,5.6,4,8.1,5.4
	c6.5,4,12.9,6.9,21.9,11.6c1.1,0.6,2,1.3,3.1,1.6c1.7,1.1,3.6,1.8,5.2,2.5c0.2,0.1,0.4,0.2,0.6,0.3c-5.4-1.9-12.8-4.5-16.8-5.1
	c-12.1-1.5-26.8,3.6-31.8,16l-0.4,2.7c27.1-18.9,49.3-8.5,79.9-3.7c1.5,0.3,3,0.5,4.5,0.8c8.7,1.3,17.5,1.6,26.2,1.1
	c10.8-0.6,21.2-2,30.7-4.7c14.3-4.2,27.7-10.8,40.1-20.2c4.4-3.6,8.7-7.3,12.9-11.2c1.3-1.3,2.7-2.7,4-4c17.3-20.2,12.3-39.7-4-45.4
	c-2-0.9-4.5-1.4-7.1-1.6c-2,0-4.2,0.2-5.8,0.4c-15,2.3-19.9,14.8-14.3,22.6C771.8,145.5,777.2,146.8,781.8,144.2L781.8,144.2z
	 M594.5,870.2c0.9-5.6,1.8-11,3.6-16.1c3.1-8.7,8.7-16.8,20.4-25.1c0.4-0.4,0.6-0.6,1.1-0.9c-0.2,0-0.6,0.2-1.1,0.4
	c-7.7,2.5-14.6,5.2-20.4,8.9c-7,4.5-12.5,10.6-16.3,19.9c-1.2,3.1-2.3,6.9-3.1,11l3.1,0.4L594.5,870.2L594.5,870.2z M869.8,445.7
	c-10.4-6.9-16.8-19.5-20.8-33.7c-4.7-18.8-6.5-40.5-7.5-54.2c-2.5-34.7-2.3-99.6,18.1-133.7c2.9-4.7,6.3-8.7,10.2-11.9
	c1.8-1.6,4-2.9,6.3-4.2l-6.3-4.2l-3.6-2.3c-5.6,1.4-11.6,7.1-13,12.5l-3.3-2.7c2.7-4.5,6-10.4,12.3-12.5l-10.2-7.4
	c-5.4,1.8-10,6.5-11.9,11.2l-2.9-2c0.9-3.3,7.2-10,11.9-11.6c-2.9-2.9-7.8-7.4-10.8-10.8c-1.5,2.5-3.3,5.2-5.6,8.1
	c-4.5,5.2-10.6,10.6-18.3,14.6l-2-2.5c2.5-0.4,14.1-8.7,20.4-17.5c1.3-1.8,2.3-3.8,2.9-5.6c-1-1.3-1.8-2.3-2.9-3.3
	c-2.3-2.3-4.3-4.5-6-6.9c-8.1,14.6-16.4,22.6-31.8,30.8c-1.1,0.4-2,1.1-3.3,1.6l-1.8-2.7c1.8-0.9,3.6-1.6,5.2-2.5
	c13.5-7.2,23.3-17.9,29.8-31.2c-4.2-5-8.5-12.9-11-18.3c-1.8,11.6-8.9,22.2-18.8,31.4c-4,3.8-8.3,7.3-12.9,10.6
	c-12.5,8.5-26.8,15.4-40.1,19.7c-4,1.4-7.7,2.5-11.4,3.6h98v292.4c0.6,7.3,2,13.3,4.3,18.1c5,11.6,13.9,16.8,26.4,15.6
	c4.2-0.9,7.9-2.7,10.8-5.2c7.7-7.1,9.6-19.3,0-27.7c-0.9-0.9-1.8-1.4-2.9-2c-8.3,8.9-29.5-1.3-33.1-11.9l3.1-2.3
	c2.9,11.6,23.9,16.6,28.7,11.2l3.8-13.7c-10.4,2.9-34.5-11.6-33.6-23.7l2.3-5.8c-1.1,14.8,20.4,28,31.8,25.8c0.6-0.2,1.4-0.4,2-0.6
	l6.5-11c-2.9,0-5.8-0.6-8.5-1.3c-15.9-4.2-29.3-18.1-34.1-43.5l2-6.7c4,19.1,10,39.1,32,45.7c1.2,0.4,2.5,0.6,3.8,0.9
	c11.4,1.6,14.1-3.8,20.6-11.6C884.3,452,876.2,450,869.8,445.7L869.8,445.7z M851.5,538.9c-4.2,11.4-4.5,29.3-2.7,50.6
	c7.7,36.8,12.3,63.1,9.8,89.3c-2.9,33.9-11.2,57.3-26,77.2c-8.5,11.6-19.3,22.1-32.5,32.9l12.5-23.9l10-25.6
	c4.3-9.6,4.7-20.6,6-30.9c1.1-22.1-7.9-33.3,0-58.2c-12.9,12.1-7.5,22.9-6.7,36.8c0.4,7.7,1.8,15.6,0.9,23.3
	c-1.6,12.1-4.3,24.4-8.5,35.8c-4.1,12.7-11,26.6-19.5,38.3c-4,5.6-8.1,10.6-12.7,14.8h-0.2c-10,2.9-18.8,5.4-27.1,7.2
	c4.3-4.2,8.9-8.3,12.8-12.9c11.6-14.6,10.2-24.8,11.9-42.3c0.4-5.6,1-10.8,2.3-16.1c1.3-5.8,3.3-11.4,7.1-17
	c-2.9,3.3-5.2,5.6-7.1,8.5c-3.6,5-5.6,11.4-6.7,27.6c-2.9,27.7-10.8,38.1-28.9,53.9c-1.6,0.2-3.1,0.6-4.5,0.9
	c-7.7,1.6-15.6,2.9-24.2,4.3c11-6.5,18.1-12.1,24.2-24.2c0.4-1.1,1.1-1.8,1.5-2.9c-0.4,0.6-1.1,1.3-1.5,1.8
	c-10.8,13.7-20.2,18.8-35.2,27.3c-7.3,1.5-14.8,3.1-21.9,5c-12.7,3.3-24.8,7.7-36,14.3c-1.6,1.1-3.6,2-5.2,3.3
	c-6.5,4.2-12.5,9.4-18.1,15.6c-2.7,3.3-5,7.2-6.9,11.2c-4.2,9.2-6.7,19.4-9.2,27.9l-11.2-1.5l-5.4-0.6l-4,13.7l-6.9-1.6l-6-1.3
	c-1.1,7.2-3.8,15.9-8.7,22.4c-2.3,3.3-5,6-7.9,8.3c-3.1-2.3-5.8-5-8.1-8.3c-4.7-6.7-7.7-15.2-8.7-22.4l-6,1.3l-6.9,1.6l-4-13.7
	l-5.4,0.6l-11.2,1.5c-2.3-8.5-5-18.8-9.2-27.9c-1.8-4-4.2-7.9-6.9-11.2c-5.6-6.3-11.6-11.4-18.1-15.6c-1.6-1.3-3.3-2.3-5.2-3.3
	c-11.2-6.7-23.3-11-36-14.3c-7.1-1.8-14.3-3.6-21.9-5c-15-8.5-24.4-13.5-35.2-27.3c-0.4-0.6-0.9-1.3-1.3-1.8
	c0.4,1.1,0.9,1.8,1.3,2.9c6,12.1,13,17.7,24.4,24.2c-8.7-1.4-16.6-2.7-24.4-4.3c-1.5-0.2-2.9-0.6-4.4-0.9
	c-18.1-15.9-26.2-26.2-29.1-53.9c-1.1-16.2-3.1-22.6-6.5-27.6c-2-2.9-4.4-5.2-7.2-8.5c3.8,5.6,5.8,11.2,7.2,17
	c1.1,5.2,1.6,10.4,2.3,16.1c1.5,17.5,0,27.7,11.9,42.3c3.8,4.5,8.3,8.7,12.7,12.9c-8.3-1.8-17-4.3-26.8-7.2c-0.2,0-0.2,0-0.4,0
	c-4.6-4.2-8.7-9.2-12.7-14.8c-8.5-11.6-15.2-25.6-19.5-38.3c-4.2-11.4-6.9-23.7-8.5-35.8c-0.9-7.7,0.4-15.6,0.9-23.3
	c0.9-13.9,6.3-24.8-6.7-36.8c7.9,25-1.1,36.2,0,58.2c1.4,10.4,1.8,21.5,6,30.9l10,25.6l12.7,23.9c-13.3-10.8-23.9-21.2-32.7-32.9
	c-14.6-19.9-22.9-43.2-26-77.2c-2.5-26.2,2.3-52.4,9.8-89.3c1.8-21.2,1.5-39.1-2.5-50.6c9.7-2.9,13.9,1.8,16,10.4
	c2.5-5.4,2.5-10.4,2.7-17.3c0.2-0.6,0.2-1.3,0.2-1.8c5.8,6.5,7.7,13.7,4.2,22.2l-4.4,9.8l-2.7,6.7l-4.3,25c2.5-2.7,5-5.2,7.1-7.9
	c0.2-0.2,0.4-0.4,0.6-0.6l4.5-8.9c0.2,6,2.3,12.3,0.9,18.1c-1.3,4.7-3.6,7.9-6,11.9c-0.2,0.6-0.6,1.3-1.1,2
	c-14.8,25.1-15.2,25.1-11.9,53.7c4.7-3.1,8.3-8.1,11-15.4c-0.4-4-1.5-5.6-0.9-9.6c0.4-1.4,1.5-2.7,2.7-4c1.6-1.5,3.3-2.7,4.2-4.4
	c0-5.8-4.3-10.8-0.4-15.8l4.2-6c1.6,11.4,2.9,14.3,4.7,25.6c0.9,4.7,2,14.3,4,18.9c4.3,10.6,11.6,13.9,9.4,27.9
	c-2.5,14.6-7.2,28.9,1.7,51.3l5.8,11.9l4.3-4l1.1-1.1c-0.4-0.4-0.6-1.1-1.1-1.5c-6.7-10.4-2.9-17.3,0-23.9v-0.2
	c0.9-4.4,1.1-12.3,0-17c0-0.4-0.2-0.6-0.2-1.1c0,0.2,0.2,0.2,0.2,0.4c3.1,5,8.5,13.3,11.6,17.9c0.4,0.9,0.9,1.5,1.5,2
	c2.9,4.4,6,8.9,7.9,13.7c1.8,5,2.3,8.9,3.3,14.1c3.3,12.3,1.3,23.5,7.8,32.5c11.6,13.9,10.8,5.2,7.2-4.2c0.9-2,3.6-3.8,3.8-6
	c0.2-3.6-2-4.4-2.9-7.7l-2.5-11c5.2,6,10,12.3,15.4,18.1c2.3,2.5,4.5,4.7,7.1,6.9c5.8,5.4,10.8,9.2,17,14.1c3.1,2.5,5.6,6.3,8.5,9.4
	c2,2,7,4.7,10,5.8c4.5,1.8,9.6,3.8,14.3,5.6c12.1,4.3,24.6,8.7,36,14.3c1.8,0.9,3.6,1.8,5.2,2.7c9.4,5.2,17.9,11.2,25,19.1
	c2,2,3.8,4.5,5.6,6.9c6.5,9.8,11,19.3,13.9,29.1l0.9-0.2l16.3-2h0.4l1.4,12.7l12.3-1.8c0,2.5,0.2,4.7,0.6,7.1
	c1.3,7.9,4.7,14.3,8.1,15.9c3.1-1.5,6.7-7.9,7.9-15.9c0.4-2.3,0.9-4.5,0.9-7.1l12.1,1.8l1.5-12.7h0.4l16.3,2l0.9,0.2
	c2.9-9.8,7.5-19.3,14.1-29.1c1.7-2.3,3.6-4.7,5.4-6.9c7.1-7.9,15.6-13.9,25-19.1c1.6-0.9,3.6-1.8,5.2-2.7c11.6-5.6,24.2-10,36-14.3
	c5-1.8,9.8-3.8,14.3-5.6c2.9-1.1,7.9-3.8,10-5.8c2.9-3.1,5.6-6.9,8.7-9.4c6-5,11-8.7,16.8-14.1c2.5-2,4.7-4.4,7-6.9
	c5.4-5.8,10.4-12.1,15.4-18.1l-2.5,11c-0.6,3.3-2.9,4.2-2.7,7.7c0,2.3,2.7,4,3.6,6c-3.6,9.4-4.3,18.1,7.4,4.2
	c6.5-8.9,4.3-20.2,7.7-32.5c1.1-5.2,1.3-9.2,3.1-14.1c1.8-4.7,5-9.4,8.1-13.7c0.4-0.6,0.9-1.3,1.3-2c3.1-4.5,8.5-12.9,11.6-17.9
	c0.2-0.2,0.2-0.2,0.2-0.4c0,0.4,0,0.6-0.2,1.1c-1.1,4.7-0.9,12.7,0,17v0.2c2.9,6.7,6.7,13.5,0,23.9c-0.2,0.4-0.6,1.1-1.1,1.5
	l1.1,1.1l4.5,4l5.6-11.9c9.2-22.4,4.2-36.8,1.8-51.3c-2.3-13.9,4.7-17.3,9.2-27.9c1.8-4.5,3.3-14.1,4-18.9
	c1.8-11.2,3.3-14.1,4.7-25.6l4.2,6c4.2,5-0.4,9.9-0.4,15.8c0.9,1.6,2.5,2.9,4.2,4.4c1.3,1.3,2.5,2.5,2.7,4c0.6,4-0.4,5.6-0.6,9.6
	c2.5,7.3,6,12.3,10.8,15.4c3.3-28.5,2.9-28.5-11.6-53.7c-0.4-0.9-0.9-1.5-1.3-2c-2.5-4-4.5-7.1-5.8-11.9c-1.6-5.8,0.4-12.1,0.9-18.1
	l4.3,8.9c0.2,0.2,0.4,0.4,0.6,0.6c2,2.7,4.7,5.2,7.1,7.9l-4.2-25l-2.9-6.7l-4.3-9.8c-3.6-8.5-1.6-15.9,4.2-22.2
	c0,0.6,0.2,1.3,0.2,1.8c0.4,6.9,0.2,11.9,2.9,17.3C837.3,540.7,841.7,536,851.5,538.9L851.5,538.9z M293.8,753.8
	c-4-9.6-6.5-17.7-8.1-24.9c-4-19-1.1-30.6,0-43.2c0.4-4.4,0.6-8.7,0-13.5c-0.2-2.5-0.6-5.2-1.3-7.9c0.9,28-16.3,40.8,1.3,75.9
	C288,744.2,290.5,748.7,293.8,753.8L293.8,753.8L293.8,753.8z M329.4,729.4c2.5,27.9-6.3,33.9,7.2,55.1c1.8,3.1,4.3,6.7,7.5,10.6
	c-3.6-5.8-6-11-7.5-15.9l0,0C330,760.2,336.3,747.9,329.4,729.4z M376.6,774.8c6.3,20.2,22.1,25.6,38.5,37.2
	c-16.4-17-27.7-15.2-35.2-39.7l-3.3-3.8l-1.1-1.3l0.2,4.4C376,772.6,376.2,773.7,376.6,774.8L376.6,774.8L376.6,774.8z M742.5,771.7
	l0.4-4.4l-1.3,1.3l-3.3,3.8c-7.2,24.6-18.8,22.6-35.2,39.7c16.4-11.6,32.5-17,38.5-37.2C742,773.7,742.2,772.6,742.5,771.7
	L742.5,771.7L742.5,771.7z M788.8,729.4c-6.9,18.5-0.6,30.8-7.1,49.9c-1.6,4.7-4.2,10-7.7,15.8c3.1-4,5.6-7.4,7.7-10.6l0,0
	C795.1,763.3,786.3,757.2,788.8,729.4z M833.8,664.1c-0.6,2.7-1.1,5.4-1.3,7.7c-0.6,5-0.4,9.4,0,13.7c1.1,12.7,4,24.4,0,43.2
	c-1.4,7.2-4,15.4-7.9,24.9c3.1-5,5.8-9.6,7.9-13.7l0,0C850.2,704.8,833.1,692.2,833.8,664.1z M876.8,394.7
	c-6.5,5.6-7.4,25.3,8.1,28.9c16.4,1.8,18.5-7.9,16.1-14.3c-2.9-6.9-12.7-10.1-17.3,1.5l-1.8-2.7c-1.3-8.5,11.2-12.7,17.9-9.2
	c7.8,4.7,11.4,18.1,2.9,26c-4.3,3.8-12.1,5.6-21.5,3.8c-4.3-1.4-8.3-4.7-11.4-9.8c-2.5-4-4.6-8.7-6-14.6c-7.3-27.3-5.2-68.7,6-90.5
	c5-9.6,11.6-15.4,19.9-14.3c1-9.6-10.8-18.8-19.9-15c-3.1,1.3-5.8,4-7.7,8.7c-4.3,10.4-3.6,19.3-4.7,27.9h-1.9
	c0-31.4,3.1-56,14.3-76.3c1.6-3.1,3.8-6.3,5.8-9.2c15.6-21.9,45.4-6.3,34.5,12.5c-6.5,9.4-15.7,7.7-21,2l1.2-4
	c2,1.6,8.9,7.1,14.1,0.9c10-12.9-9.6-20.6-19.2-13.3c-13.3,9.8-11.2,32.9,8.1,35.6c19.5,3.8,33.1-10.6,32.5-30.9
	c-2.3-28.2-40.3-34.9-56.2-19c-1.1,1.1-2,2.3-2.9,3.6c-13.9,21.9-17.5,37-20.6,76.6c-1.1,19.9-1.5,38.7,0,58
	c1.1,16.8,3.3,33.9,7.5,52.6h0.2c2.7,12.5,8.1,22.2,15.8,28.2c7.2,5.8,17,8.1,28.5,5.6C946.9,425.7,910.1,365.8,876.8,394.7
	L876.8,394.7z M567.1,837.5c5,4.2,8.3,12.1,8.3,21.2c0,9.2-3.3,17-8.3,21.2c-2.3,2-4.7,3.1-7.5,3.1c0,0-0.2,0-0.4,0s-0.2,0-0.4,0
	c-2.9,0-5.4-1.1-7.7-3.1c-5-4.1-8.3-12.1-8.3-21.2c0-9.2,3.3-17,8.3-21.2c2.3-1.8,4.7-3.1,7.7-3.1c0.2,0,0.2,0,0.4,0s0.4,0,0.4,0
	C562.4,834.4,564.9,835.7,567.1,837.5z M565.8,858.8c0-6.3-2.5-11.2-6.7-11.2c-4.2,0-6.9,5-6.9,11.2c0,6,2.7,11.2,6.9,11.2l0,0
	C563.4,870,565.8,864.8,565.8,858.8z M582.3,203.8c-0.2,0-0.2,0.2-0.4,0.2c-4.7,2.3-9.7,4.2-14.8,5.4c-2.7,0.9-5.4,1.5-7.9,2
	c-2.5-0.6-5.4-1.3-8.1-2c-4.7-1.3-9.8-3.1-14.8-5.4c-0.2,0-0.2-0.2-0.4-0.2c0.2,0,0.2-0.2,0.4-0.2c6-3.8,11.2-9.8,14.8-16.4
	c0.6-1.4,1.3-2.7,1.7-4.2c0.2,1.9,0.2-8.5,0.2-8.5c-0.4,1.8-1.1,3.6-1.8,5c-3.6,6.9-8.9,12.5-14.8,16.6c-2.3,1.6-4.5,3.1-6.9,4.2
	c-3.3-1.8-6.5-4.2-9.4-6.7c-2.5-2-4.7-4.4-6.7-6.9c2,0,4,0,5.8-0.2c0.2,0,0.6,0,0.9,0c4.4-0.9,10-2.7,14.6-5.6
	c0.6-0.6,1.1-1.1,1.7-1.6c6-6.3,9.6-15.9,6.5-24.2c-1.3-2.9-3.3-5.6-6.5-7.7c-2-1.5-4.7-2.5-7.9-3.3c2.7-0.9,5.4-1.6,7.9-2.5
	c5-1.5,10-2.3,14.8-2.9c2.3-0.2,4.4-0.2,6.7-0.2c0.2,0,0.4,0,0.6,0c0,0,0.2,0,0.4,0c0.2,0,0.2,0,0.4,0s0.4,0,0.4,0
	c0.2,0,0.2,0,0.4,0c0,0,0.2,0,0.4,0c2.3,0,4.5,0,6.7,0.2c5,0.6,9.8,1.4,14.8,2.9c2.5,0.9,5.2,1.6,7.9,2.5c-3.1,0.9-5.6,1.8-7.9,3.3
	c-3.1,2-5.2,4.7-6.5,7.7c-3.1,8.3,0.6,17.9,6.5,24.2c0.6,0.6,1.3,1.1,1.8,1.6c4.3,2.9,10,4.7,14.3,5.6c0.4,0,0.6,0,0.9,0
	c1.8,0.2,3.8,0.2,5.8,0.2c-1.8,2.5-4.2,4.9-6.7,6.9c-2.7,2.5-6,4.7-9.4,6.7c-2.3-1.1-4.5-2.5-6.9-4.2c-5.8-4.2-11.2-9.8-14.8-16.6
	c-0.4-1-1-2.2-1.4-3.3l-0.1,7.4c0.4,1.2,1,2.4,1.5,3.6c3.6,6.7,8.7,12.7,14.8,16.4C582.1,203.5,582.1,203.8,582.3,203.8L582.3,203.8
	z M559.2,157c3.6-0.2,6.3-0.9,7.9-2c4-2.5,3.6-6.9,0-9.6c-1.8-1.5-4.6-2.7-7.9-2.7c-3.6,0-6.3,1.3-8.1,2.7c-3.6,2.7-4,7.1,0,9.6l0,0
	C552.8,156.1,555.5,156.8,559.2,157z M578.5,56c-1.9-0.2-3.7-0.5-5.7-0.8c-4.7,11.5-7.3,23.1-8.5,34.1c-1.4,15.5-0.1,30.3,1.9,42.9
	c2.2,0.2,4.5,0.4,6.7,0.8c2.6,0.3,5.1,0.6,7.2,1.1c1.4-8.7,4.2-19.5,7.8-30.6c4.5-13.6,10.7-27.7,17.7-39.1c0.5-0.8,1-1.5,1.7-2.3
	c-0.9-0.2-1.6-0.5-2.3-0.6C596.2,59.1,587.4,57.2,578.5,56L578.5,56z M820.3,214.8V492H298V214.8H820.3z M722.7,249.4l2.3,1.3l2.9,2
	l2.9,3.6l2.7,3.1c0-0.2,1.1,0.9,1.1,0.9l1.8-1.1l3.1-1.5l1.8-1.6l-0.6-1.6c0,0-2.7-3.3-3.8-3.8c-1-0.6-4.5-4.2-4.5-4.2
	c-1.8-2.5-9.4-0.4-9.6,1.8C722.7,248.7,722.7,249.2,722.7,249.4z M685.3,269.2l2.3,1.1l4.5,1.3h3.3l5.2-3.8l12.7-6.7l7.4-4l2.5-2.5
	l-0.6-0.9l-1.1-1.1l-2.3-2.3l-1.8-0.2l-2.3,1.8l-26,13.7l-3.6,2.3L685.3,269.2z M675.5,274.5l3.3,1.1l3.8,1.1l3.1,4.7l3.3,3.6
	c0.2-0.2,1.3,1.1,1.3,1.1l3.3-2.5l1.5-1.8v-0.1l4.9-2.9l8.3-4.7l6.9-4.6l8.7-4.3l1.6-1.4l-1.6-2.5l-4-1.1l-2.9,1.5l-8.1,4.2
	l-8.1,4.6l-10.4,5.3l-0.8-0.8l-4.5-3.8l-2.5-1.1l-6.7,3.8L675.5,274.5z M682.3,285.3l-1.4-3.1h-1.8l-4,2.5l-6.3,3.6l-6.7,3.3
	l-6.9,4.2l-6,2.9l-2,1.5l0.9,1.6l1.3,2.9l1.5,1.4l0.9,0.4l4.2-2.5c0,0,5-2.7,6-3.8c1-1.1,8.9-5,8.9-5l12.3-5.8l0.4-2L682.3,285.3z
	 M638.8,293.3l0.6,1.1l3.1,1.6l3.6,1.8l5.2-3.1l8.3-4.7l6.9-4.6l8.7-4.3l1.6-1.4l-1.6-2.5l-4-1.1l-2.9,1.4l-8.1,4.2l-8.1,4.6
	l-10.6,5.4L638.8,293.3z M628.7,299.1c0.4,0.9,1.5,0.6,2.3,0.9c4.7,2.5,4.3,3.1,6.9,7.9c0.4,0.6,1.5,5,2.5,4.7c1.3,0,2-1.4,3.1-2
	c0.9-0.4,1.7-0.9,2.5-1.3c1.2-0.6,0.6-0.6,0-1.5c-0.4-0.6-0.9-1.3-1.1-1.8c-2.5-4.5-4.2-8.3-9.4-10.4c-0.4-0.2-1.1,0.2-1.5,0.4
	c-1.4,0.6-2.9,1.1-4.2,1.8C629.3,298,628.5,298.6,628.7,299.1z M634.7,310.7c-0.4-0.9-0.6-1.8-1.3-2.5c-0.6-0.2-1.3-0.2-1.8,0.2
	c-4.7,3.1-7.9,5.6-14.1,8.3c-2,1.1-4,2-6,3.3c-1.5,0.9-2.7,2-4.2,2.9c-3.1,1.8-6.5,2.7-9.4,4.4c-0.6,0.2-1.6,0.9-1.6,1.6
	c0,1.1,1.1,1.6,1.6,2.5c0.4,0.9,0.6,1.6,1.2,2.5c0.2,0.2,0.4,0.4,0.9,0.4c0.4-0.2,0.6-0.6,1.1-0.9c2.3-1.3,4.5-2.7,7-4.2
	c2.9-1.8,9.6-4.4,12.1-6.7c0.4-0.4,0.4-1.1,0.9-1.5c2.7-1.8,7.2-3.8,10.2-5c1.5-0.6,2.7-0.9,4-1.6c0.4-0.2,0.9-0.6,0.6-1.3
	C635.7,312.6,635.2,311.5,634.7,310.7z M587.9,321.3l3.3,2l2.3,1.6l2.5-0.6c4-2.7,7.8-5.8,12.1-8.1c3.3-1.8,7.1-2.5,10.6-4.3
	c1.3-0.6,1.8-2,3.1-2.7c1.3-0.9,3.1-0.6,4.5-1.5l3.3-2l-1.2-2c-1.3-0.6-2.5-2-3.8-1.8c-2.9,0.6-5.4,2.9-7.9,4.2
	c-1.6,0.9-3.3,1.4-4.9,2.3c-2,1.1-4,2.3-5.8,3.6c-1.7,1.3-3.3,2.5-5,3.6l-6.5,3.1C594.7,318.4,587.9,321.5,587.9,321.3z
	 M576.3,326.5c7.2,2.9,10.4,7.1,13.9,13.5l5.6-2.7c-1.6-6.3-6.7-12.5-13-14.1L576.3,326.5z M581,335.8c-0.9,0.4-3.3,2-4.2,2.5
	l6.9,4.5l2.5-1.8C583.7,338.3,583,336.5,581,335.8z M566.9,332.7l6.3,3.6l5.2-3.1l-4.3-4.2l-1.6,0.2L566.9,332.7z M542.5,323.1
	c-6.3,1.6-11.2,7.9-13,14.1l5.8,2.7c3.3-6.5,6.5-10.6,13.7-13.5L542.5,323.1z M500.4,301.1c-2-0.4-6,1.6-6.5,4.4l0,0
	c10.1,5.6,28,14.3,37.8,19.5l2.3-1.6l4-2.3C531.6,317.9,503.1,302.5,500.4,301.1z M493.1,307.8c-4.5,1.5-4,6.7-3.6,6.9
	c5.6,3.1,30.8,17.3,36,19.7c0.2,0,0.4-0.2,0.6-0.4c0.6-0.9,0.9-1.6,1.2-2.5c0.6-0.9,1.7-1.5,1.7-2.5
	C529.1,327.1,496.6,310.1,493.1,307.8z M489.7,295.5c-5.6,1.8-10.1,9.4-12.1,13.5c4.3,2,6,3.8,7.2,3.8c1.8-8.1,7.9-12.5,11.6-13.7
	c0.2-0.4-0.6-1.1-1.3-1.3C494.8,297.4,490.6,295.3,489.7,295.5z M478.3,300l-2-1.5c-10-4.5-21.2-11.2-30.6-17
	c-3.1,0.2-4.5,4.4-4,7.1c9.6,4.5,19,10,28,15.4l4.9,3.1C475.2,304.5,476.2,302.3,478.3,300z M452.7,275.1c-3.1,0.4-7.1,2.3-3.3,5.4
	c10.2,5,21,11.6,30.7,17.3c1.3-1.8,3.6-3.3,6.3-4.6l-2.7-1.6C473.8,286.6,462.7,280.3,452.7,275.1z M442.7,269.8
	c-5.2,1.6-11,8.1-12.3,12.7l1.5,1.1l5.4,2.5c2-8.3,8.5-12.1,12.3-12.7L442.7,269.8z M430.7,276.1l2.3-1.1l-0.4-1.1l-3.6-2.3L403,258
	l-3.1-1.6c-2.7,1.5-4.2,2.5-4.7,5.4c7.7,3.6,23.3,11,31.2,15.6L430.7,276.1z M401.1,255.7c7.7,3.6,23.3,11,31.2,15.6l4.3-1.3
	l2.3-1.1l-0.4-1.1l-3.6-2.3l-25.8-13.6l-3.1-1.6C403.2,251.9,401.7,252.8,401.1,255.7z M382.9,256.2l8.3,4.7
	c1.6-5.2,7.9-10.8,11.4-12.7c-0.2-1.1-7.1-4-7.7-4c-4.2,0.6-8.7,5.4-11,9.2L382.9,256.2z M360.5,244.7c5.2,3.1,11.2,5.6,17.3,9.4
	c-0.2-1.8,1.8-3.6,4-5.2c0-0.6-19.3-10.6-21.2-11.2c-2.9-1.5-6,4-3.8,5L360.5,244.7z M366.6,423.8c0,2.7,1.3,2.5,3.3,2.3
	c1.6-0.2,3.3-0.4,5-0.9c2-0.6,3.3-0.4,3.8-2.7c0.4-1.1,0.6-2.3,0.9-3.3c0.2-1.5,0.2-2.7,0.4-4c0.2-0.9,1-1.4,1.2-2.3
	c0-0.2,0-0.6-0.2-0.9c0-0.2-0.2-0.4-0.2-0.4c-0.4-0.4-0.9-0.6-1.2-0.6c-3.6,0.4-6.9,1.1-10.4,1.8c-0.2,0-0.4,0.2-0.9,0.4
	c-0.9,0.9-1.1,2.3-1.3,3.3C366.8,419.3,366.6,421.6,366.6,423.8z M372.4,448c0.9,0.6,2.9,0,4-0.2c1.8-0.6,8.3-2.3,7.9-4.5
	c-0.4-1.3-0.9-2.5-1.5-3.6c-0.6-1.1-1.7-1.8-2.5-2.9c-1.8-2.7-2.3-3.8-2.3-6.9c0-4.5-5.4-0.4-7.8,0.4c-2.5,0.9-3.8,1.4-3.6,4.7
	c0,1.6,0.2,3.6,0.9,5.4c0.2,0.6,1.3,0.6,1.5,1.3c0.6,1.1,0.9,2.3,1.5,3.3C371,446.1,371.3,447.3,372.4,448z M392.6,450.2
	L392.6,450.2c-0.6,0-4-1.8-4-1.8c-5.4-1.3-7.3,0.9-12.5,3.3c-0.6,0.2-1.4,0.4-1.8,1.3c-0.2,0.4,0.4,0.9,0.6,1.1
	c0.9,0.9,1.6,1.8,2.7,2.3c1.3,0.4,5.6,0.9,7,0.9c1.3-0.2,7.1-1.4,8.3-1.8C396.3,454,397,451.1,392.6,450.2z M408.2,446.1
	c-2.3-1.3-5.8,0-8.3-0.9c-1.5-0.4-2.5-1.6-3.8-2.3c-0.6-0.4-1.8-0.4-2.3-1.1c-0.9-1.1-0.9-4.2-1.8-5.8c-0.9-1.3-2.3-2-2.9-3.6
	c-1.1-2-0.6-6.7-1.1-9.2c-0.2-1.3-0.9-2.5-1.1-3.8c0-0.9,0.6-1.5,0.9-2c2-2.3,2.3-2.9,2.5-5.8c0.2-1.4,1-2.9,0.6-4.2
	c-0.4-1.6-5.8,1.5-6,2.7c-0.6,1.4-0.9,2.5-1.1,4.1c-0.2,2-0.6,4.2-0.9,6.3c0,1.5,0.4,2.9,0.2,4.4c0,1.1-0.6,1.8-0.6,2.9
	c-0.4,6.5,1.7,5.2,4.2,10.4c0.9,1.8,1.5,4,2.3,5.8c2.9,3.6,5,3.6,7.7,3.8c0.6,0,1.5,0,2,0.4c0.9,0.4,0.9,1.6,1.6,1.8
	c3.1,0.6,5,0.2,8.1-2.5C408.8,447.1,408.6,446.3,408.2,446.1z M466.4,405.7c-0.4-0.6-0.9-1.5-0.9-2.3l0,0c-0.2-1.3,0-2.3,0-3.3
	c-0.2-1.3,0.9-2.9-0.2-3.6c-2.7-1.3-4.5,0.4-7.2,1.4c-2.9,1.5-6.3,2.7-10.2,3.6c-5.6,0.9-10.6,2.5-15.9,4.7c0,0-15,5.2-15.9,5.6
	c-0.9,0.2-10.8,4.5-10.8,4.5l-9.3,2.7c-4,1.3-5,2.5-3.1,6.7l1.7,4l0.4,6.7c1.7,2.3,4,2.5,5.8,0.9c4.2-2.3,8.5-4.2,12.5-6.5
	c9.6-6.5,17.5-10.8,26.4-18.1c0.9-0.6,1.8-0.9,2.9-1.1c1.1-0.2,2.3,0,3.3-0.4c0.4-0.2,0.9-0.9,1.3-1.3c3.1-1.6,6.7-2.9,10-4.4
	c1.1-0.6,2.3-1.1,3.3-1.4c0.6-0.2,1.5-0.9,2-0.6c0.4,0.4,0.6,1.5,0.2,1.6c-4.5,3.1-11,4.5-16.3,7.4c-1.3,0.9-2.5,1.8-3.8,2.9
	c-8.7,3.3-22.4,17-29.8,19.5c-3.1,1.1-5.2,2.7-8.3,4c-1.4,0.4-3.1,0.2-4.2,1.4c-2.5,2.9,4,2.5,4.5,2.5c2.7-1.4,3.3-1.1,5.8,0.4
	l2.7-0.2c1-1.3,2.3-2.5,3.6-3.8c1.7-1.6,3.6-2.7,5.2-4.3c7.7-4,16.3-12.7,22.3-16.6c4.5-2.9,5.6-4.5,13.3-6.7
	c1.6-0.6,3.6-0.9,5.2-1.6C466.4,409.1,467.3,407.2,466.4,405.7z M492,394.7l-3.1-6.5c-4-6.9-13.8-5.4-17.7-3.1
	c-2.9,1.2-4.7,4.5-7.9,5c-21.5,4.2-42.7,8.3-67,16.5c-0.9,0.2-1.6,3.1-1.6,3.1l-0.4,6l64.9-20.6c2.5-0.6,5-1.1,6.7-0.2
	c2,0.2,1.6,4.7,2.7,6.7c0.9,1.4,1.1,2.5,1.8,3.8c1.7,2.3,4.4,4,4.7,6.7c0.4,2.3-1.6,4.5-2.3,6.7l3.6,2.5l4.2-7.3
	c0.9-1.3-1.3-2.9-1.8-4.2c-0.9-2.3-1.6-4.5-2.9-6.7c-1.2-2-3.3-3.6-4.2-5.6c-0.9-2-2-4.5-1.3-6.7c0.6-1.5,3.1-1.8,4.7-1.6
	c1.7,0,3.3,1.1,4.2,2.3c1.3,1.8,1.1,3.8,1.6,5.8c0.2,1.3,1.1,1.8,2.9,1.5l7.7-1.8C492.2,396.3,492.2,395.4,492,394.7z M474.5,390.7
	c-1.5,0-2.5,1.3-2.5,2.7c0,1.5,1.1,2.7,2.5,2.7c1.4,0,2.7-1.3,2.7-2.7C477.2,392,476,390.7,474.5,390.7z M557.1,358.7l-9.2-4.5
	l-45.6,24.6l-1.6-1.3l0.2-1.3l43.7-24.6l-7.2-3.7l-24.2,13.9l-19.7,10.8c-2.5,1.6-3.1,5-1.7,7.1c3.6,3.6,6.5,6,7.7,11.6l12.7-7.7
	l33.3-18.8L557.1,358.7z M627,392.2c1.5-5.6,4.5-8.1,8.1-11.6c1.5-2-0.9-6.3-3.3-7.9l-80.4-44.3l-6.9,5.2l80.1,42.6l0.2,1.3
	l-1.8,1.3l-80.7-43l-4.7,6.3l75.7,41.8L627,392.2z M659.4,393.6L659.4,393.6c1.6-0.9,4.3-0.4,6.9,0.2l64.9,20.6l-0.6-6
	c0,0-0.9-2.9-1.7-3.1c-24.4-8.1-45.6-12.3-67-16.4c-3.1-0.4-4.7-3.8-7.7-5c-4-2.3-15.2-4.5-19.1,2.3l-3.3,6.5
	c-0.2,0.6-0.2,1.6,0.6,2l9.2,2.7c1.6,0.4,2.7-0.2,2.9-1.5c0.4-2,0.4-4,1.5-5.8c0.9-1.2,2.7-2.3,4.2-2.3c1.6-0.2,4.2,0.2,4.7,1.6
	c0.9,2-0.2,4.5-1.3,6.7c-0.9,2-2.9,3.6-4.2,5.6c-1.3,2-1.8,4.4-2.9,6.7c-0.6,1.3-2.5,2.9-1.8,4.2l4.2,7.3l3.8-2.5
	c-0.9-2-2.9-4.3-2.5-6.7c0.6-2.7,3.1-4.4,4.7-6.7c1.1-1.3,1.1-2.3,1.8-3.8C657.8,398.5,657.4,393.9,659.4,393.6z M649.7,396.2
	c1.5,0,2.5-1.3,2.5-2.7c0-1.4-1-2.7-2.5-2.7c-1.5,0-2.7,1.3-2.7,2.7C647,394.9,648.2,396.2,649.7,396.2z M723.5,439.2
	c-1.1-1.1-1.7-1.1-3.1-1.4c-25.8-14.6-42.5-26.4-57.8-33.6c-0.4-0.4-0.4-1.5,0.2-1.8c0.4-0.2,1.3,0.4,1.8,0.6
	c1.3,0.4,2.3,0.9,3.3,1.4c19.6,9.8,37,22.4,56.6,31.6c0.4,0.6,1.1,1.1,1.8,1.1c5.2-3.8,8.3-17.9,2.9-19.2l-9.6-2.5
	c0,0-9.8-4.4-10.8-4.5c-10-3.6-21-8.9-31.6-10.4c-3.8-0.9-7-2-10.1-3.6c-2.7-1.1-4.6-2.7-7.1-1.4c-1.1,0.6-0.2,2.3-0.2,3.6
	c0,1.1,0.2,2,0,3.3c-0.2,0.9-0.6,1.6-1.1,2.3c-0.9,1.4,0,3.3,3.1,4.4c22.1,12.7,34.3,22.6,49.7,33.1
	C714.6,442.8,716.3,443.8,723.5,439.2z M724.8,449.1c16.8-6.3,20.8-24.4,15.9-39.9l0,0c-0.4-1.3-5.8-4.4-6.3-2.7
	c0.9,10.8,5.2,34.1-17.3,38.5c-0.4,0.2-0.6,1.1-0.4,1.6C719.8,449.2,721.9,449.6,724.8,449.1z M751,451.8c-0.4-0.9-1.3-1.1-1.8-1.3
	c-5.2-2.5-7.1-4.5-12.5-3.3c0,0-3.3,1.8-4,1.8c-4.4,0.9-3.6,3.8-0.2,5c1.1,0.4,6.9,1.6,8.1,1.8c1.4,0,6-0.4,7-0.9
	c1.1-0.4,1.8-1.3,2.7-2.3C750.5,452.5,751.2,452.1,751,451.8z M758.7,433.9c0-3.3-1.3-4-3.6-4.7c-2.5-0.9-7.9-5-7.9-0.4
	c0,3.1-0.2,4.2-2.3,7.1c-0.6,0.9-1.7,1.6-2.3,2.7c-0.9,1.1-1.2,2.3-1.5,3.6c-0.6,2.3,6,4,7.9,4.5c1.1,0.2,3.1,0.9,4,0.2
	c0.9-0.6,1.3-1.8,1.8-2.9c0.4-1.1,0.6-2.3,1.2-3.3c0.4-0.6,1.3-0.6,1.5-1.3C758.3,437.3,758.5,435.5,758.7,433.9z M758.8,422.6
	c0-2.3-0.4-4.5-0.6-6.9c-0.2-1.3-0.2-2.7-1.3-3.6c-0.2-0.2-0.6-0.2-0.9-0.4c-3.3-0.9-6.9-1.4-10.4-1.8c-0.4,0-0.9,0.2-1,0.6
	c-0.2,0-0.4,0.2-0.4,0.4c0,0.2,0,0.6,0,0.9c0.2,0.9,0.9,1.5,1.1,2.3c0.4,1.2,0.2,2.5,0.4,4c0.2,1.1,0.4,2.3,0.9,3.3
	c0.4,2.3,1.8,2,4,2.7c1.4,0.4,3.1,0.6,4.7,0.9C757.4,425.1,758.8,425.3,758.8,422.6z M763.9,238.1c-1.6,0.6-20.2,10.1-20.2,10.8
	c1.8,1.6,4,3.3,4,5.2c5.8-3.8,11.9-6.3,17-9.4c1.2-1.3,2.9-2,3.8-3.3C771.3,239.8,766.4,236.9,763.9,238.1z"/>
</svg>
